<svg width="40" height="40" viewBox="0 0 40 40" fill="none" xmlns="http://www.w3.org/2000/svg">
<g clip-path="url(#clip0_7946_1560)">
<path d="M20 40C31.0457 40 40 31.0457 40 20C40 8.95431 31.0457 0 20 0C8.95431 0 0 8.95431 0 20C0 31.0457 8.95431 40 20 40Z" fill="url(#paint0_radial_7946_1560)"/>
<path fill-rule="evenodd" clip-rule="evenodd" d="M20 9.86047C22.7535 9.86047 23.0995 9.87164 24.1805 9.92187C25.0217 9.93796 25.8541 10.0971 26.6419 10.3926C27.3152 10.6536 27.9266 11.0521 28.4373 11.5628C28.9479 12.0734 29.3464 12.6849 29.6075 13.3581C29.9023 14.1442 30.0614 14.9746 30.0781 15.814C30.1284 16.8949 30.1395 17.2409 30.1395 19.9944C30.1395 22.7479 30.1284 23.094 30.0781 24.1749C30.0621 25.0161 29.9029 25.8485 29.6075 26.6363C29.3464 27.3096 28.9479 27.9211 28.4373 28.4317C27.9266 28.9423 27.3152 29.3408 26.6419 29.6019C25.8562 29.8986 25.0257 30.0596 24.1861 30.0781C23.1051 30.1284 22.7591 30.1395 20.0056 30.1395C17.2521 30.1395 16.9061 30.1284 15.8251 30.0781C14.9839 30.0621 14.1515 29.9029 13.3637 29.6075C12.6904 29.3464 12.079 28.9479 11.5683 28.4373C11.0577 27.9266 10.6592 27.3152 10.3982 26.6419C10.1014 25.8561 9.94038 25.0257 9.92187 24.1861C9.87163 23.1051 9.86047 22.7591 9.86047 20.0056C9.86047 17.2521 9.87163 16.9061 9.92187 15.8251C9.93796 14.9839 10.0971 14.1515 10.3926 13.3637C10.6529 12.6894 11.0512 12.0768 11.5618 11.5652C12.0725 11.0536 12.6843 10.6542 13.3581 10.3926C14.1442 10.0978 14.9746 9.9386 15.814 9.92187C16.9005 9.87164 17.2465 9.86047 20 9.86047ZM24.093 11.747C23.0251 11.6986 22.7033 11.6875 20 11.6875C17.2968 11.6875 16.9712 11.6986 15.907 11.747C15.263 11.7536 14.6249 11.8706 14.0205 12.093C13.5824 12.2619 13.1846 12.5207 12.8526 12.8526C12.5207 13.1846 12.2619 13.5824 12.093 14.0205C11.8704 14.6236 11.7527 15.2604 11.7451 15.9033C11.6968 16.9712 11.6856 17.293 11.6856 19.9963C11.6856 22.6995 11.6968 23.0251 11.7451 24.0893C11.7519 24.7347 11.8696 25.3741 12.093 25.9795C12.2619 26.4176 12.5207 26.8154 12.8526 27.1474C13.1846 27.4793 13.5824 27.7381 14.0205 27.907C14.6236 28.1296 15.2604 28.2473 15.9033 28.2549C16.9712 28.3033 17.293 28.3144 19.9963 28.3144C22.6995 28.3144 23.0251 28.3033 24.0893 28.2549C24.7347 28.2481 25.3741 28.1304 25.9795 27.907C26.4176 27.7381 26.8154 27.4793 27.1474 27.1474C27.4793 26.8154 27.7381 26.4176 27.907 25.9795C28.1296 25.3764 28.2473 24.7396 28.2549 24.0968C28.3033 23.0288 28.3144 22.707 28.3144 20.0037C28.3144 17.3005 28.3033 16.9749 28.2549 15.9107C28.2481 15.2653 28.1304 14.626 27.907 14.0205C27.7381 13.5824 27.4793 13.1846 27.1474 12.8526C26.8154 12.5207 26.4176 12.2619 25.9795 12.093C25.3763 11.871 24.7395 11.754 24.0968 11.747H24.093ZM20 23.3805C20.6686 23.3805 21.3222 23.1822 21.8781 22.8108C22.434 22.4393 22.8673 21.9114 23.1232 21.2937C23.379 20.676 23.446 19.9963 23.3155 19.3405C23.1851 18.6848 22.8631 18.0824 22.3904 17.6097C21.9176 17.1369 21.3153 16.8149 20.6595 16.6845C20.0038 16.5541 19.3241 16.621 18.7064 16.8769C18.0887 17.1327 17.5607 17.566 17.1893 18.1219C16.8178 18.6778 16.6195 19.3314 16.6195 20C16.62 20.8964 16.9763 21.756 17.6102 22.3898C18.2441 23.0237 19.1036 23.38 20 23.3805ZM20 14.7926C21.0303 14.7926 22.0375 15.0981 22.8941 15.6705C23.7508 16.2429 24.4185 17.0565 24.8128 18.0084C25.2071 18.9602 25.3102 20.0076 25.1092 21.0182C24.9082 22.0287 24.4121 22.9569 23.6835 23.6854C22.955 24.4139 22.0268 24.9101 21.0163 25.1111C20.0058 25.3121 18.9584 25.2089 18.0065 24.8146C17.0546 24.4204 16.241 23.7527 15.6686 22.896C15.0962 22.0393 14.7907 21.0322 14.7907 20.0019C14.7907 18.6203 15.3395 17.2953 16.3165 16.3183C17.2934 15.3414 18.6184 14.7926 20 14.7926ZM26.6288 14.5879C26.6288 14.8286 26.5575 15.0638 26.4238 15.2639C26.2901 15.464 26.1001 15.6199 25.8777 15.712C25.6554 15.8041 25.4108 15.8282 25.1747 15.7813C24.9387 15.7343 24.7219 15.6184 24.5517 15.4483C24.3816 15.2781 24.2657 15.0613 24.2187 14.8253C24.1718 14.5893 24.1959 14.3446 24.288 14.1223C24.3801 13.9 24.536 13.7099 24.7361 13.5762C24.9362 13.4425 25.1715 13.3712 25.4121 13.3712C25.7348 13.3712 26.0443 13.4994 26.2725 13.7275C26.5007 13.9557 26.6288 14.2652 26.6288 14.5879Z" fill="white"/>
</g>
<defs>
<radialGradient id="paint0_radial_7946_1560" cx="0" cy="0" r="1" gradientUnits="userSpaceOnUse" gradientTransform="translate(10.1946 39.0799) rotate(-38.74) scale(56.787 36.3437)">
<stop stop-color="#F9D27A"/>
<stop offset="0.05" stop-color="#F8C871"/>
<stop offset="0.14" stop-color="#F5AD58"/>
<stop offset="0.25" stop-color="#EF8130"/>
<stop offset="0.26" stop-color="#EF7E2D"/>
<stop offset="0.36" stop-color="#F04C3E"/>
<stop offset="0.38" stop-color="#ED4A45"/>
<stop offset="0.49" stop-color="#D43E79"/>
<stop offset="0.55" stop-color="#CA398E"/>
<stop offset="0.7" stop-color="#8D3CC8"/>
<stop offset="0.9" stop-color="#304DF0"/>
</radialGradient>
<clipPath id="clip0_7946_1560">
<rect width="40" height="40" fill="white"/>
</clipPath>
</defs>
</svg>
