<svg width="40" height="40" viewBox="0 0 40 40" fill="none" xmlns="http://www.w3.org/2000/svg">
<g clip-path="url(#clip0_7946_1552)">
<path d="M20 40C31.0457 40 40 31.0457 40 20C40 8.95431 31.0457 0 20 0C8.95431 0 0 8.95431 0 20C0 31.0457 8.95431 40 20 40Z" fill="#0077FF"/>
<path d="M20.733 27.3749C12.9786 27.3749 8.55812 22.0577 8.37207 13.2094H12.2549C12.3832 19.7024 15.2465 22.454 17.5144 23.0214V13.2094H21.1739V18.8094C23.4065 18.5694 25.7674 16.0187 26.56 13.2094H30.2195C29.6093 16.668 27.0567 19.2205 25.2428 20.2698C26.6615 20.9743 27.9145 21.972 28.919 23.1968C29.9235 24.4216 30.6566 25.8457 31.0697 27.3749H27.0437C26.1786 24.681 24.0223 22.5973 21.1739 22.3145V27.3749H20.733Z" fill="white"/>
</g>
<defs>
<clipPath id="clip0_7946_1552">
<rect width="40" height="40" fill="white"/>
</clipPath>
</defs>
</svg>
